<?xml version="1.0" standalone="yes"?>

<svg version="1.1" viewBox="0.0 0.0 755.9055118110236 415.748031496063" fill="none" stroke="none" stroke-linecap="square" stroke-miterlimit="10" xmlns="http://www.w3.org/2000/svg" xmlns:xlink="http://www.w3.org/1999/xlink"><clipPath id="ge9dd7ef42_0_0.0"><path d="m0 0l755.9055 0l0 415.74802l-755.9055 0l0 -415.74802z" clip-rule="nonzero"></path></clipPath><g clip-path="url(#ge9dd7ef42_0_0.0)"><path fill="#ffffff" d="m0 0l755.9055 0l0 415.74802l-755.9055 0z" fill-rule="nonzero"></path><path fill="#ffffff" d="m264.56433 5.667042l226.36221 0l0 402.39368l-226.36221 0z" fill-rule="nonzero"></path><path stroke="#666666" stroke-width="1.0" stroke-linejoin="round" stroke-linecap="butt" stroke-dasharray="1.0,3.0" d="m264.56433 5.667042l226.36221 0l0 402.39368l-226.36221 0z" fill-rule="nonzero"></path><path fill="#f1c232" d="m314.09134 12.570741l127.653564 0l0 124.8819l-127.653564 0z" fill-rule="nonzero"></path><path fill="#ffffff" d="m378.19937 97.95168l-6.0625 0l-24.96875 -38.34375l-0.25 0q0.5 6.75 0.5 12.375l0 25.96875l-4.90625 0l0 -45.6875l6.0 0l24.90625 38.1875l0.25 0q-0.0625 -0.84375 -0.28125 -5.421875q-0.21875 -4.578125 -0.15625 -6.546875l0 -26.21875l4.96875 0l0 45.6875zm38.34375 -12.15625q0 6.03125 -4.375 9.40625q-4.375 3.375 -11.875 3.375q-8.125 0 -12.5 -2.09375l0 -5.125q2.8125 1.1875 6.125 1.875q3.3125 0.6875 6.5625 0.6875q5.3125 0 8.0 -2.015625q2.6875 -2.015625 2.6875 -5.609375q0 -2.375 -0.953125 -3.890625q-0.953125 -1.515625 -3.1875 -2.796875q-2.234375 -1.28125 -6.796875 -2.90625q-6.375 -2.28125 -9.109375 -5.40625q-2.734375 -3.125 -2.734375 -8.15625q0 -5.28125 3.96875 -8.40625q3.96875 -3.125 10.5 -3.125q6.8125 0 12.53125 2.5l-1.65625 4.625q-5.65625 -2.375 -11.0 -2.375q-4.21875 0 -6.59375 1.8125q-2.375 1.8125 -2.375 5.03125q0 2.375 0.875 3.890625q0.875 1.515625 2.953125 2.78125q2.078125 1.265625 6.359375 2.796875q7.1875 2.5625 9.890625 5.5q2.703125 2.9375 2.703125 7.625z" fill-rule="nonzero"></path><path fill="#674ea7" d="m612.0483 274.12286l127.653564 0l0 124.8819l-127.653564 0z" fill-rule="nonzero"></path><path fill="#ffffff" d="m693.23444 359.5038l-5.3125 0l0 -21.5l-24.0625 0l0 21.5l-5.3125 0l0 -45.6875l5.3125 0l0 19.4375l24.0625 0l0 -19.4375l5.3125 0l0 45.6875z" fill-rule="nonzero"></path><path fill="#e69138" d="m16.134382 274.12286l127.65355 0l0 124.8819l-127.65355 0z" fill-rule="nonzero"></path><path fill="#ffffff" d="m71.77365 340.5038l0 19.0l-5.3125 0l0 -45.6875l12.53125 0q8.40625 0 12.421875 3.21875q4.015625 3.21875 4.015625 9.6875q0 9.0625 -9.1875 12.25l12.40625 20.53125l-6.28125 0l-11.0625 -19.0l-9.53125 0zm0 -4.5625l7.28125 0q5.625 0 8.25 -2.234375q2.625 -2.234375 2.625 -6.703125q0 -4.53125 -2.671875 -6.53125q-2.671875 -2.0 -8.578125 -2.0l-6.90625 0l0 17.46875z" fill-rule="nonzero"></path><path fill="#000000" fill-opacity="0.0" d="m377.91812 274.12286l0 -136.66142" fill-rule="nonzero"></path><path stroke="#595959" stroke-width="4.0" stroke-linejoin="round" stroke-linecap="butt" d="m377.9181 251.60977l0 -114.148315" fill-rule="evenodd"></path><path fill="#595959" stroke="#595959" stroke-width="4.0" stroke-linecap="butt" d="m377.9181 251.60976l-6.661133 9.513107l6.661133 9.513123l6.6611633 -9.513123z" fill-rule="evenodd"></path><path fill="#000000" fill-opacity="0.0" d="m371.5528 228.95631l60.0 0l0 29.291336l-60.0 0z" fill-rule="nonzero"></path><path fill="#000000" d="m405.63873 255.32199l-4.828125 0l0 -13.21875l0.046875 -2.171875l0.078125 -2.375q-1.203125 1.203125 -1.671875 1.578125l-2.625 2.109375l-2.328125 -2.90625l7.359375 -5.859375l3.96875 0l0 22.84375z" fill-rule="nonzero"></path><path fill="#000000" fill-opacity="0.0" d="m371.5528 137.47113l60.0 0l0 29.291336l-60.0 0z" fill-rule="nonzero"></path><path fill="#000000" d="m405.63873 163.83679l-4.828125 0l0 -13.21875l0.046875 -2.171875l0.078125 -2.375q-1.203125 1.203125 -1.671875 1.578125l-2.625 2.109375l-2.328125 -2.90625l7.359375 -5.859375l3.96875 0l0 22.84375z" fill-rule="nonzero"></path><path fill="#000000" fill-opacity="0.0" d="m143.78793 336.5638l170.2992 0" fill-rule="nonzero"></path><path stroke="#595959" stroke-width="4.0" stroke-linejoin="round" stroke-linecap="butt" d="m143.78793 336.5638l170.2992 0" fill-rule="nonzero"></path><path fill="#000000" fill-opacity="0.0" d="m441.7449 336.5638l170.29922 0" fill-rule="nonzero"></path><path stroke="#595959" stroke-width="4.0" stroke-linejoin="round" stroke-linecap="butt" d="m441.7449 336.5638l170.29922 0" fill-rule="nonzero"></path><path fill="#000000" fill-opacity="0.0" d="m131.05722 307.27203l60.0 0l0 29.291351l-60.0 0z" fill-rule="nonzero"></path><path fill="#000000" d="m163.08847 309.3252l-0.640625 5.75l5.828125 -1.625l0.515625 3.9375l-5.3125 0.375l3.484375 4.640625l-3.546875 1.890625l-2.4375 -4.890625l-2.140625 4.859375l-3.6875 -1.859375l3.453125 -4.640625l-5.28125 -0.40625l0.609375 -3.90625l5.703125 1.625l-0.640625 -5.75l4.09375 0z" fill-rule="nonzero"></path><path fill="#000000" fill-opacity="0.0" d="m266.87244 307.27203l60.0 0l0 29.291351l-60.0 0z" fill-rule="nonzero"></path><path fill="#000000" d="m298.9037 309.3252l-0.640625 5.75l5.828125 -1.625l0.515625 3.9375l-5.3125 0.375l3.484375 4.640625l-3.546875 1.890625l-2.4375 -4.890625l-2.140625 4.859375l-3.6875 -1.859375l3.453125 -4.640625l-5.28125 -0.40625l0.609375 -3.90625l5.703125 1.625l-0.640625 -5.75l4.09375 0z" fill-rule="nonzero"></path><path fill="#000000" fill-opacity="0.0" d="m429.01416 307.27203l60.0 0l0 29.291351l-60.0 0z" fill-rule="nonzero"></path><path fill="#000000" d="m463.1001 333.6377l-4.828125 0l0 -13.21875l0.046875 -2.171875l0.078125 -2.375q-1.203125 1.203125 -1.671875 1.578125l-2.625 2.109375l-2.328125 -2.90625l7.359375 -5.859375l3.96875 0l0 22.84375z" fill-rule="nonzero"></path><path fill="#000000" fill-opacity="0.0" d="m564.8294 307.27203l60.0 0l0 29.291351l-60.0 0z" fill-rule="nonzero"></path><path fill="#000000" d="m596.86066 309.3252l-0.640625 5.75l5.828125 -1.625l0.515625 3.9375l-5.3125 0.375l3.484375 4.640625l-3.546875 1.890625l-2.4375 -4.890625l-2.140625 4.859375l-3.6875 -1.859375l3.453125 -4.640625l-5.28125 -0.40625l0.609375 -3.90625l5.703125 1.625l-0.640625 -5.75l4.09375 0z" fill-rule="nonzero"></path><path fill="#f4cccc" d="m35.13281 99.43493l89.732285 0l0 87.77953l-89.732285 0z" fill-rule="nonzero"></path><path fill="#ffffff" d="m91.155205 157.72469l-3.796875 0l-15.59375 -23.96875l-0.15625 0q0.3125 4.21875 0.3125 7.734375l0 16.234375l-3.078125 0l0 -28.5625l3.75 0l15.578125 23.875l0.15625 0q-0.046875 -0.53125 -0.1875 -3.390625q-0.125 -2.859375 -0.09375 -4.09375l0 -16.390625l3.109375 0l0 28.5625z" fill-rule="nonzero"></path><path fill="#000000" fill-opacity="0.0" d="m124.8651 143.32469l219.08662 151.40157" fill-rule="nonzero"></path><path stroke="#d9d9d9" stroke-width="4.0" stroke-linejoin="round" stroke-linecap="butt" stroke-dasharray="32.0,12.0" d="m124.8651 143.32469l219.08662 151.40157" fill-rule="nonzero"></path><path fill="#000000" fill-opacity="0.0" d="m109.97165 113.99663l60.0 0l0 29.291336l-60.0 0z" fill-rule="nonzero"></path><path fill="#cccccc" d="m142.0029 116.0498l-0.640625 5.75l5.828125 -1.625l0.515625 3.9375l-5.3125 0.375l3.484375 4.6406326l-3.546875 1.890625l-2.4375 -4.8906326l-2.140625 4.8593826l-3.6875 -1.859375l3.453125 -4.6406326l-5.28125 -0.40625l0.609375 -3.90625l5.703125 1.625l-0.640625 -5.75l4.09375 0z" fill-rule="nonzero"></path><path fill="#000000" fill-opacity="0.0" d="m282.09134 232.25179l60.0 0l0 29.291336l-60.0 0z" fill-rule="nonzero"></path><path fill="#cccccc" d="m316.17728 258.61746l-4.828125 0l0 -13.21875l0.046875 -2.171875l0.078125 -2.375q-1.203125 1.203125 -1.671875 1.578125l-2.625 2.109375l-2.328125 -2.90625l7.359375 -5.859375l3.96875 0l0 22.84375z" fill-rule="nonzero"></path><path fill="#000000" fill-opacity="0.0" d="m79.96115 274.12286l0.03150177 -86.897644" fill-rule="nonzero"></path><path stroke="#d9d9d9" stroke-width="4.0" stroke-linejoin="round" stroke-linecap="butt" stroke-dasharray="32.0,12.0" d="m79.96115 274.12286l0.03150177 -86.897644" fill-rule="nonzero"></path><path fill="#6aa84f" d="m314.09134 274.12286l127.653564 0l0 124.8819l-127.653564 0z" fill-rule="nonzero"></path><path fill="#ffffff" d="m363.465 313.8163l12.90625 0q9.09375 0 13.15625 2.71875q4.0625 2.71875 4.0625 8.59375q0 4.0625 -2.265625 6.703125q-2.265625 2.640625 -6.609375 3.421875l0 0.3125q10.40625 1.78125 10.40625 10.9375q0 6.125 -4.140625 9.5625q-4.140625 3.4375 -11.578125 3.4375l-15.9375 0l0 -45.6875zm5.3125 19.5625l8.75 0q5.625 0 8.09375 -1.765625q2.46875 -1.765625 2.46875 -5.953125q0 -3.84375 -2.75 -5.546875q-2.75 -1.703125 -8.75 -1.703125l-7.8125 0l0 14.96875zm0 4.5l0 17.09375l9.53125 0q5.53125 0 8.328125 -2.140625q2.796875 -2.140625 2.796875 -6.703125q0 -4.25 -2.859375 -6.25q-2.859375 -2.0 -8.703125 -2.0l-9.09375 0z" fill-rule="nonzero"></path><path fill="#000000" fill-opacity="0.0" d="m73.5958 187.16292l59.999992 0l0 29.291336l-59.999992 0z" fill-rule="nonzero"></path><path fill="#cccccc" d="m105.62705 189.2161l-0.640625 5.75l5.828125 -1.625l0.515625 3.9375l-5.3125 0.375l3.484375 4.640625l-3.546875 1.890625l-2.4375 -4.890625l-2.140625 4.859375l-3.6875 -1.859375l3.453125 -4.640625l-5.28125 -0.40625l0.609375 -3.90625l5.703125 1.625l-0.640625 -5.75l4.09375 0z" fill-rule="nonzero"></path><path fill="#000000" fill-opacity="0.0" d="m73.5958 244.8232l59.999992 0l0 29.291336l-59.999992 0z" fill-rule="nonzero"></path><path fill="#cccccc" d="m105.62705 246.87636l-0.640625 5.75l5.828125 -1.625l0.515625 3.9375l-5.3125 0.375l3.484375 4.6406403l-3.546875 1.890625l-2.4375 -4.890625l-2.140625 4.859375l-3.6875 -1.859375l3.453125 -4.6406403l-5.28125 -0.40625l0.609375 -3.90625l5.703125 1.625l-0.640625 -5.75l4.09375 0z" fill-rule="nonzero"></path></g></svg>

